<svg id="visual" viewBox="0 0 1920 1280" width="1920" height="1280" xmlns="http://www.w3.org/2000/svg" xmlns:xlink="http://www.w3.org/1999/xlink" version="1.1"><path d="M0 257L640 257L1280 257L1920 219L1920 0L1280 0L640 0L0 0Z" fill="#000000"></path><path d="M0 436L640 423L1280 436L1920 411L1920 217L1280 255L640 255L0 255Z" fill="#060606"></path><path d="M0 795L640 871L1280 833L1920 807L1920 409L1280 434L640 421L0 434Z" fill="#0c0c0c"></path><path d="M0 1281L640 1281L1280 1281L1920 1281L1920 805L1280 831L640 869L0 793Z" fill="#111111"></path></svg>